<svg width="36" height="32" viewBox="0 0 36 32" fill="none" xmlns="http://www.w3.org/2000/svg">
<path fill-rule="evenodd" clip-rule="evenodd" d="M10.9769 20.4616C9.71113 19.2333 9 17.5672 9 15.8298C8.99997 14.9696 9.17453 14.1177 9.51373 13.3229C9.85294 12.5281 10.3501 11.806 10.9769 11.1977C11.6037 10.5894 12.3479 10.1068 13.1668 9.77765C13.9858 9.44845 14.8636 9.27904 15.75 9.27909H27.0005C28.1939 9.27891 29.3383 8.81875 30.182 7.99979C31.0257 7.18084 31.4997 6.07017 31.4997 4.91209V0.544922H36.0004V4.91209C36.0004 7.22853 35.0522 9.45011 33.3645 11.0881C31.6765 12.7261 29.3874 13.6463 27.0005 13.6463H15.75C15.1533 13.6463 14.581 13.8763 14.159 14.2858C13.7371 14.6953 13.5 15.2507 13.5 15.8298C13.5 16.409 13.7371 16.9644 14.159 17.3739C14.581 17.7833 15.1533 18.0134 15.75 18.0134H27.0005C29.3874 18.0134 31.6765 18.9336 33.3645 20.5715C35.0522 22.2096 36.0004 24.4312 36.0004 26.7476V31.1146H31.5004V26.7474C31.5004 25.5892 31.0262 24.4784 30.1823 23.6594C29.3385 22.8404 28.194 22.3803 27.0005 22.3803H15.7497C13.9596 22.3803 12.2427 21.6902 10.9769 20.4616ZM26.9997 28.9316V31.1152H15.7497C11.5726 31.1152 7.5666 29.5048 4.61296 26.6383C1.65933 23.7718 9.03761e-10 19.884 9.03761e-10 15.8303C-2.21554e-05 13.823 0.40734 11.8354 1.19883 9.981C1.99031 8.12654 3.15042 6.44155 4.61292 5.0222C6.07541 3.60287 7.81165 2.47699 9.7225 1.70885C11.6334 0.940705 13.6814 0.545348 15.7497 0.545348H26.9997V2.72893C26.9997 3.01574 26.9415 3.29973 26.8284 3.5647C26.7152 3.82966 26.5495 4.07041 26.3404 4.27319C26.1315 4.47596 25.8833 4.63679 25.6103 4.74649C25.3373 4.85618 25.0445 4.9126 24.749 4.91251H15.7492C14.2718 4.9125 12.8089 5.19487 11.444 5.74353C10.0791 6.2922 8.8389 7.09638 7.79423 8.11018C6.74957 9.12401 5.92089 10.3276 5.35552 11.6522C4.79015 12.9768 4.49916 14.3965 4.49916 15.8303C4.49921 18.7259 5.68449 21.5028 7.79427 23.5503C9.90406 25.5978 12.7655 26.748 15.7492 26.748H24.7497C25.0452 26.748 25.3378 26.8045 25.6108 26.9142C25.8836 27.024 26.1317 27.1848 26.3408 27.3875C26.5497 27.5904 26.7154 27.8311 26.8284 28.0959C26.9415 28.3609 26.9997 28.6449 26.9997 28.9316Z" fill="white"/>
</svg>
